<mxfile host="app.diagrams.net" modified="2021-03-23T15:01:44.069Z" agent="5.0 (Windows NT 10.0; Win64; x64) AppleWebKit/537.36 (KHTML, like Gecko) Chrome/89.0.4389.90 Safari/537.36" etag="8o5gxh1fqySajdO3NDnl" version="14.5.0" type="github">
  <diagram id="C5RBs43oDa-KdzZeNtuy" name="Page-1">
    <mxGraphModel dx="2048" dy="645" grid="1" gridSize="10" guides="1" tooltips="1" connect="1" arrows="1" fold="1" page="1" pageScale="1" pageWidth="827" pageHeight="1169" math="0" shadow="0">
      <root>
        <mxCell id="WIyWlLk6GJQsqaUBKTNV-0" />
        <mxCell id="WIyWlLk6GJQsqaUBKTNV-1" parent="WIyWlLk6GJQsqaUBKTNV-0" />
        <mxCell id="zkfFHV4jXpPFQw0GAbJ--0" value="Deals_actions" style="swimlane;fontStyle=3;align=center;verticalAlign=top;childLayout=stackLayout;horizontal=1;startSize=26;horizontalStack=0;resizeParent=1;resizeLast=0;collapsible=1;marginBottom=0;rounded=0;shadow=0;strokeWidth=1;fillColor=#f5f5f5;strokeColor=#666666;fontColor=#333333;" parent="WIyWlLk6GJQsqaUBKTNV-1" vertex="1">
          <mxGeometry x="-350" y="2110" width="160" height="160" as="geometry">
            <mxRectangle x="230" y="140" width="160" height="26" as="alternateBounds" />
          </mxGeometry>
        </mxCell>
        <mxCell id="zkfFHV4jXpPFQw0GAbJ--1" value="id" style="text;align=left;verticalAlign=top;spacingLeft=4;spacingRight=4;overflow=hidden;rotatable=0;points=[[0,0.5],[1,0.5]];portConstraint=eastwest;" parent="zkfFHV4jXpPFQw0GAbJ--0" vertex="1">
          <mxGeometry y="26" width="160" height="26" as="geometry" />
        </mxCell>
        <mxCell id="oAdYO1nvRudMaTHA6pIa-215" value="deal_id" style="text;align=left;verticalAlign=top;spacingLeft=4;spacingRight=4;overflow=hidden;rotatable=0;points=[[0,0.5],[1,0.5]];portConstraint=eastwest;rounded=0;shadow=0;html=0;fillColor=#f9f7ed;strokeColor=#36393d;" vertex="1" parent="zkfFHV4jXpPFQw0GAbJ--0">
          <mxGeometry y="52" width="160" height="26" as="geometry" />
        </mxCell>
        <mxCell id="oAdYO1nvRudMaTHA6pIa-214" value="status" style="text;align=left;verticalAlign=top;spacingLeft=4;spacingRight=4;overflow=hidden;rotatable=0;points=[[0,0.5],[1,0.5]];portConstraint=eastwest;rounded=0;shadow=0;html=0;" vertex="1" parent="zkfFHV4jXpPFQw0GAbJ--0">
          <mxGeometry y="78" width="160" height="26" as="geometry" />
        </mxCell>
        <mxCell id="oAdYO1nvRudMaTHA6pIa-262" value="time&#xa;" style="text;align=left;verticalAlign=top;spacingLeft=4;spacingRight=4;overflow=hidden;rotatable=0;points=[[0,0.5],[1,0.5]];portConstraint=eastwest;rounded=0;shadow=0;html=0;" vertex="1" parent="zkfFHV4jXpPFQw0GAbJ--0">
          <mxGeometry y="104" width="160" height="26" as="geometry" />
        </mxCell>
        <mxCell id="zkfFHV4jXpPFQw0GAbJ--6" value="Employee" style="swimlane;fontStyle=3;align=center;verticalAlign=top;childLayout=stackLayout;horizontal=1;startSize=26;horizontalStack=0;resizeParent=1;resizeLast=0;collapsible=1;marginBottom=0;rounded=0;shadow=0;strokeWidth=2;fontColor=#333333;fillColor=#f5f5f5;strokeColor=#666666;" parent="WIyWlLk6GJQsqaUBKTNV-1" vertex="1">
          <mxGeometry x="-510" y="1660" width="160" height="130" as="geometry">
            <mxRectangle x="130" y="380" width="160" height="26" as="alternateBounds" />
          </mxGeometry>
        </mxCell>
        <mxCell id="zkfFHV4jXpPFQw0GAbJ--7" value="id" style="text;align=left;verticalAlign=top;spacingLeft=4;spacingRight=4;overflow=hidden;rotatable=0;points=[[0,0.5],[1,0.5]];portConstraint=eastwest;fillColor=#f9f7ed;strokeColor=#36393d;" parent="zkfFHV4jXpPFQw0GAbJ--6" vertex="1">
          <mxGeometry y="26" width="160" height="26" as="geometry" />
        </mxCell>
        <mxCell id="oAdYO1nvRudMaTHA6pIa-188" value="employee_name" style="text;align=left;verticalAlign=top;spacingLeft=4;spacingRight=4;overflow=hidden;rotatable=0;points=[[0,0.5],[1,0.5]];portConstraint=eastwest;rounded=0;shadow=0;html=0;" vertex="1" parent="zkfFHV4jXpPFQw0GAbJ--6">
          <mxGeometry y="52" width="160" height="26" as="geometry" />
        </mxCell>
        <mxCell id="oAdYO1nvRudMaTHA6pIa-190" value="department_id" style="text;align=left;verticalAlign=top;spacingLeft=4;spacingRight=4;overflow=hidden;rotatable=0;points=[[0,0.5],[1,0.5]];portConstraint=eastwest;rounded=0;shadow=0;html=0;" vertex="1" parent="zkfFHV4jXpPFQw0GAbJ--6">
          <mxGeometry y="78" width="160" height="26" as="geometry" />
        </mxCell>
        <mxCell id="zkfFHV4jXpPFQw0GAbJ--9" value="" style="line;html=1;strokeWidth=1;align=left;verticalAlign=middle;spacingTop=-1;spacingLeft=3;spacingRight=3;rotatable=0;labelPosition=right;points=[];portConstraint=eastwest;" parent="zkfFHV4jXpPFQw0GAbJ--6" vertex="1">
          <mxGeometry y="104" width="160" height="8" as="geometry" />
        </mxCell>
        <mxCell id="zkfFHV4jXpPFQw0GAbJ--17" value="Real estate objects" style="swimlane;fontStyle=3;align=center;verticalAlign=top;childLayout=stackLayout;horizontal=1;startSize=26;horizontalStack=0;resizeParent=1;resizeLast=0;collapsible=1;marginBottom=0;rounded=0;shadow=0;strokeWidth=1;fillColor=#f5f5f5;strokeColor=#666666;fontColor=#333333;" parent="WIyWlLk6GJQsqaUBKTNV-1" vertex="1">
          <mxGeometry x="240" y="1624" width="160" height="260" as="geometry">
            <mxRectangle x="550" y="140" width="160" height="26" as="alternateBounds" />
          </mxGeometry>
        </mxCell>
        <mxCell id="oAdYO1nvRudMaTHA6pIa-205" value="id" style="text;align=left;verticalAlign=top;spacingLeft=4;spacingRight=4;overflow=hidden;rotatable=0;points=[[0,0.5],[1,0.5]];portConstraint=eastwest;rounded=0;shadow=0;html=0;fillColor=#f9f7ed;strokeColor=#36393d;" vertex="1" parent="zkfFHV4jXpPFQw0GAbJ--17">
          <mxGeometry y="26" width="160" height="26" as="geometry" />
        </mxCell>
        <mxCell id="oAdYO1nvRudMaTHA6pIa-206" value="object_type" style="text;align=left;verticalAlign=top;spacingLeft=4;spacingRight=4;overflow=hidden;rotatable=0;points=[[0,0.5],[1,0.5]];portConstraint=eastwest;rounded=0;shadow=0;html=0;" vertex="1" parent="zkfFHV4jXpPFQw0GAbJ--17">
          <mxGeometry y="52" width="160" height="26" as="geometry" />
        </mxCell>
        <mxCell id="zkfFHV4jXpPFQw0GAbJ--18" value="Street" style="text;align=left;verticalAlign=top;spacingLeft=4;spacingRight=4;overflow=hidden;rotatable=0;points=[[0,0.5],[1,0.5]];portConstraint=eastwest;" parent="zkfFHV4jXpPFQw0GAbJ--17" vertex="1">
          <mxGeometry y="78" width="160" height="26" as="geometry" />
        </mxCell>
        <mxCell id="oAdYO1nvRudMaTHA6pIa-207" value="cad_number" style="text;align=left;verticalAlign=top;spacingLeft=4;spacingRight=4;overflow=hidden;rotatable=0;points=[[0,0.5],[1,0.5]];portConstraint=eastwest;rounded=0;shadow=0;html=0;" vertex="1" parent="zkfFHV4jXpPFQw0GAbJ--17">
          <mxGeometry y="104" width="160" height="26" as="geometry" />
        </mxCell>
        <mxCell id="zkfFHV4jXpPFQw0GAbJ--19" value="City" style="text;align=left;verticalAlign=top;spacingLeft=4;spacingRight=4;overflow=hidden;rotatable=0;points=[[0,0.5],[1,0.5]];portConstraint=eastwest;rounded=0;shadow=0;html=0;" parent="zkfFHV4jXpPFQw0GAbJ--17" vertex="1">
          <mxGeometry y="130" width="160" height="26" as="geometry" />
        </mxCell>
        <mxCell id="zkfFHV4jXpPFQw0GAbJ--20" value="State" style="text;align=left;verticalAlign=top;spacingLeft=4;spacingRight=4;overflow=hidden;rotatable=0;points=[[0,0.5],[1,0.5]];portConstraint=eastwest;rounded=0;shadow=0;html=0;" parent="zkfFHV4jXpPFQw0GAbJ--17" vertex="1">
          <mxGeometry y="156" width="160" height="26" as="geometry" />
        </mxCell>
        <mxCell id="oAdYO1nvRudMaTHA6pIa-261" value="Status" style="text;align=left;verticalAlign=top;spacingLeft=4;spacingRight=4;overflow=hidden;rotatable=0;points=[[0,0.5],[1,0.5]];portConstraint=eastwest;rounded=0;shadow=0;html=0;" vertex="1" parent="zkfFHV4jXpPFQw0GAbJ--17">
          <mxGeometry y="182" width="160" height="26" as="geometry" />
        </mxCell>
        <mxCell id="zkfFHV4jXpPFQw0GAbJ--22" value="Country" style="text;align=left;verticalAlign=top;spacingLeft=4;spacingRight=4;overflow=hidden;rotatable=0;points=[[0,0.5],[1,0.5]];portConstraint=eastwest;rounded=0;shadow=0;html=0;" parent="zkfFHV4jXpPFQw0GAbJ--17" vertex="1">
          <mxGeometry y="208" width="160" height="26" as="geometry" />
        </mxCell>
        <mxCell id="zkfFHV4jXpPFQw0GAbJ--23" value="" style="line;html=1;strokeWidth=1;align=left;verticalAlign=middle;spacingTop=-1;spacingLeft=3;spacingRight=3;rotatable=0;labelPosition=right;points=[];portConstraint=eastwest;" parent="zkfFHV4jXpPFQw0GAbJ--17" vertex="1">
          <mxGeometry y="234" width="160" height="8" as="geometry" />
        </mxCell>
        <mxCell id="oAdYO1nvRudMaTHA6pIa-0" value="&lt;font style=&quot;font-size: 18px&quot;&gt;&lt;b&gt;Source&lt;/b&gt;&lt;/font&gt;" style="text;html=1;strokeColor=none;fillColor=none;align=center;verticalAlign=middle;whiteSpace=wrap;rounded=0;" vertex="1" parent="WIyWlLk6GJQsqaUBKTNV-1">
          <mxGeometry x="-120" y="20" width="120" height="60" as="geometry" />
        </mxCell>
        <mxCell id="oAdYO1nvRudMaTHA6pIa-1" value="&lt;font style=&quot;font-size: 18px&quot;&gt;&lt;b&gt;Storage&lt;/b&gt;&lt;/font&gt;" style="text;html=1;strokeColor=none;fillColor=none;align=center;verticalAlign=middle;whiteSpace=wrap;rounded=0;" vertex="1" parent="WIyWlLk6GJQsqaUBKTNV-1">
          <mxGeometry x="73" y="20" width="120" height="60" as="geometry" />
        </mxCell>
        <mxCell id="oAdYO1nvRudMaTHA6pIa-2" value="&lt;font style=&quot;font-size: 18px&quot;&gt;&lt;b&gt;Buisness&lt;/b&gt;&lt;/font&gt;" style="text;html=1;strokeColor=none;fillColor=none;align=center;verticalAlign=middle;whiteSpace=wrap;rounded=0;" vertex="1" parent="WIyWlLk6GJQsqaUBKTNV-1">
          <mxGeometry x="640" y="30" width="120" height="60" as="geometry" />
        </mxCell>
        <mxCell id="oAdYO1nvRudMaTHA6pIa-55" style="edgeStyle=orthogonalEdgeStyle;rounded=0;orthogonalLoop=1;jettySize=auto;html=1;exitX=1;exitY=0;exitDx=0;exitDy=30;exitPerimeter=0;entryX=0.013;entryY=0.181;entryDx=0;entryDy=0;entryPerimeter=0;endArrow=classic;endFill=1;" edge="1" parent="WIyWlLk6GJQsqaUBKTNV-1" source="oAdYO1nvRudMaTHA6pIa-3" target="oAdYO1nvRudMaTHA6pIa-27">
          <mxGeometry relative="1" as="geometry" />
        </mxCell>
        <mxCell id="oAdYO1nvRudMaTHA6pIa-56" style="edgeStyle=orthogonalEdgeStyle;rounded=0;orthogonalLoop=1;jettySize=auto;html=1;exitX=1;exitY=0.5;exitDx=0;exitDy=0;exitPerimeter=0;entryX=0;entryY=0.125;entryDx=0;entryDy=0;endArrow=classic;endFill=1;entryPerimeter=0;" edge="1" parent="WIyWlLk6GJQsqaUBKTNV-1" source="oAdYO1nvRudMaTHA6pIa-3" target="oAdYO1nvRudMaTHA6pIa-29">
          <mxGeometry relative="1" as="geometry">
            <Array as="points">
              <mxPoint x="540" y="145" />
              <mxPoint x="540" y="330" />
            </Array>
          </mxGeometry>
        </mxCell>
        <mxCell id="oAdYO1nvRudMaTHA6pIa-3" value="" style="shape=cylinder3;whiteSpace=wrap;html=1;boundedLbl=1;backgroundOutline=1;size=15;fillColor=#d5e8d4;strokeColor=#82b366;" vertex="1" parent="WIyWlLk6GJQsqaUBKTNV-1">
          <mxGeometry x="430" y="100" width="87" height="90" as="geometry" />
        </mxCell>
        <mxCell id="oAdYO1nvRudMaTHA6pIa-4" value="&lt;b&gt;&lt;font style=&quot;font-size: 14px&quot;&gt;Google sheets&lt;br&gt;&lt;/font&gt;&lt;/b&gt;" style="text;html=1;strokeColor=none;fillColor=none;align=center;verticalAlign=middle;whiteSpace=wrap;rounded=0;" vertex="1" parent="WIyWlLk6GJQsqaUBKTNV-1">
          <mxGeometry x="435.5" y="130" width="76" height="50" as="geometry" />
        </mxCell>
        <mxCell id="oAdYO1nvRudMaTHA6pIa-131" style="edgeStyle=orthogonalEdgeStyle;rounded=0;orthogonalLoop=1;jettySize=auto;html=1;exitX=1;exitY=0.25;exitDx=0;exitDy=0;entryX=0;entryY=0.5;entryDx=0;entryDy=0;entryPerimeter=0;endArrow=classic;endFill=1;" edge="1" parent="WIyWlLk6GJQsqaUBKTNV-1" source="oAdYO1nvRudMaTHA6pIa-6" target="oAdYO1nvRudMaTHA6pIa-21">
          <mxGeometry relative="1" as="geometry" />
        </mxCell>
        <mxCell id="oAdYO1nvRudMaTHA6pIa-132" style="edgeStyle=orthogonalEdgeStyle;rounded=0;orthogonalLoop=1;jettySize=auto;html=1;exitX=1;exitY=0.5;exitDx=0;exitDy=0;entryX=-0.004;entryY=0.398;entryDx=0;entryDy=0;entryPerimeter=0;endArrow=classic;endFill=1;" edge="1" parent="WIyWlLk6GJQsqaUBKTNV-1" source="oAdYO1nvRudMaTHA6pIa-6" target="oAdYO1nvRudMaTHA6pIa-23">
          <mxGeometry relative="1" as="geometry" />
        </mxCell>
        <mxCell id="oAdYO1nvRudMaTHA6pIa-133" style="edgeStyle=orthogonalEdgeStyle;rounded=0;orthogonalLoop=1;jettySize=auto;html=1;exitX=1;exitY=0.75;exitDx=0;exitDy=0;entryX=0;entryY=0.5;entryDx=0;entryDy=0;entryPerimeter=0;endArrow=classic;endFill=1;" edge="1" parent="WIyWlLk6GJQsqaUBKTNV-1" source="oAdYO1nvRudMaTHA6pIa-6" target="oAdYO1nvRudMaTHA6pIa-25">
          <mxGeometry relative="1" as="geometry">
            <Array as="points">
              <mxPoint x="370" y="427" />
              <mxPoint x="370" y="540" />
            </Array>
          </mxGeometry>
        </mxCell>
        <mxCell id="oAdYO1nvRudMaTHA6pIa-6" value="&lt;pre class=&quot;tw-data-text tw-text-large XcVN5d tw-ta&quot; id=&quot;tw-target-text&quot; dir=&quot;ltr&quot; style=&quot;line-height: 36px ; border: none ; padding: 2px 0.14em 2px 0px ; position: relative ; margin-top: -2px ; margin-bottom: -2px ; resize: none ; overflow: hidden ; width: 270px ; overflow-wrap: break-word ; color: rgb(32 , 33 , 36)&quot;&gt;&lt;font face=&quot;Helvetica&quot; size=&quot;3&quot;&gt;&lt;span style=&quot;white-space: normal&quot;&gt;&lt;b&gt;.xlsx HR&lt;/b&gt;&lt;/span&gt;&lt;/font&gt;&lt;/pre&gt;&lt;pre class=&quot;tw-data-text tw-text-large XcVN5d tw-ta&quot; id=&quot;tw-target-text&quot; dir=&quot;ltr&quot; style=&quot;line-height: 36px ; border: none ; padding: 2px 0.14em 2px 0px ; position: relative ; margin-top: -2px ; margin-bottom: -2px ; resize: none ; overflow: hidden ; width: 270px ; overflow-wrap: break-word ; color: rgb(32 , 33 , 36)&quot;&gt;&lt;font face=&quot;Helvetica&quot; size=&quot;3&quot;&gt;&lt;span style=&quot;white-space: normal&quot;&gt;&lt;b&gt;&lt;br&gt;&lt;/b&gt;&lt;/span&gt;&lt;/font&gt;&lt;/pre&gt;" style="whiteSpace=wrap;html=1;aspect=fixed;align=center;fillColor=#d5e8d4;strokeColor=#82b366;" vertex="1" parent="WIyWlLk6GJQsqaUBKTNV-1">
          <mxGeometry x="250" y="359.5" width="90" height="90" as="geometry" />
        </mxCell>
        <mxCell id="oAdYO1nvRudMaTHA6pIa-42" style="edgeStyle=orthogonalEdgeStyle;rounded=0;orthogonalLoop=1;jettySize=auto;html=1;exitX=0.775;exitY=0.094;exitDx=0;exitDy=0;entryX=0;entryY=0;entryDx=0;entryDy=30;entryPerimeter=0;exitPerimeter=0;" edge="1" parent="WIyWlLk6GJQsqaUBKTNV-1" source="oAdYO1nvRudMaTHA6pIa-134" target="oAdYO1nvRudMaTHA6pIa-3">
          <mxGeometry relative="1" as="geometry">
            <mxPoint x="350" y="184.25" as="sourcePoint" />
            <Array as="points">
              <mxPoint x="350" y="168" />
              <mxPoint x="390" y="168" />
              <mxPoint x="390" y="130" />
            </Array>
          </mxGeometry>
        </mxCell>
        <mxCell id="oAdYO1nvRudMaTHA6pIa-47" style="edgeStyle=orthogonalEdgeStyle;rounded=0;orthogonalLoop=1;jettySize=auto;html=1;exitX=0.938;exitY=0.245;exitDx=0;exitDy=0;entryX=0;entryY=0;entryDx=0;entryDy=30;entryPerimeter=0;endArrow=classic;endFill=1;exitPerimeter=0;" edge="1" parent="WIyWlLk6GJQsqaUBKTNV-1" source="oAdYO1nvRudMaTHA6pIa-134" target="oAdYO1nvRudMaTHA6pIa-19">
          <mxGeometry relative="1" as="geometry">
            <mxPoint x="350" y="199" as="sourcePoint" />
            <Array as="points">
              <mxPoint x="353" y="181" />
              <mxPoint x="420" y="181" />
              <mxPoint x="420" y="230" />
            </Array>
          </mxGeometry>
        </mxCell>
        <mxCell id="oAdYO1nvRudMaTHA6pIa-43" style="edgeStyle=orthogonalEdgeStyle;rounded=0;orthogonalLoop=1;jettySize=auto;html=1;exitX=1;exitY=0.25;exitDx=0;exitDy=0;entryX=0;entryY=0.5;entryDx=0;entryDy=0;entryPerimeter=0;" edge="1" parent="WIyWlLk6GJQsqaUBKTNV-1" source="oAdYO1nvRudMaTHA6pIa-8" target="oAdYO1nvRudMaTHA6pIa-3">
          <mxGeometry relative="1" as="geometry">
            <Array as="points">
              <mxPoint x="380" y="283" />
              <mxPoint x="380" y="145" />
            </Array>
          </mxGeometry>
        </mxCell>
        <mxCell id="oAdYO1nvRudMaTHA6pIa-130" style="edgeStyle=orthogonalEdgeStyle;rounded=0;orthogonalLoop=1;jettySize=auto;html=1;exitX=1;exitY=0.5;exitDx=0;exitDy=0;entryX=0;entryY=0.5;entryDx=0;entryDy=0;entryPerimeter=0;endArrow=classic;endFill=1;" edge="1" parent="WIyWlLk6GJQsqaUBKTNV-1" source="oAdYO1nvRudMaTHA6pIa-8" target="oAdYO1nvRudMaTHA6pIa-19">
          <mxGeometry relative="1" as="geometry" />
        </mxCell>
        <mxCell id="oAdYO1nvRudMaTHA6pIa-8" value="&lt;b&gt;.XLSX&lt;/b&gt;" style="rounded=0;whiteSpace=wrap;html=1;fillColor=#d5e8d4;strokeColor=#82b366;" vertex="1" parent="WIyWlLk6GJQsqaUBKTNV-1">
          <mxGeometry x="250" y="270.5" width="100" height="49" as="geometry" />
        </mxCell>
        <mxCell id="oAdYO1nvRudMaTHA6pIa-19" value="" style="shape=cylinder3;whiteSpace=wrap;html=1;boundedLbl=1;backgroundOutline=1;size=15;fillColor=#d5e8d4;strokeColor=#82b366;" vertex="1" parent="WIyWlLk6GJQsqaUBKTNV-1">
          <mxGeometry x="434" y="200" width="87" height="90" as="geometry" />
        </mxCell>
        <mxCell id="oAdYO1nvRudMaTHA6pIa-57" style="edgeStyle=orthogonalEdgeStyle;rounded=0;orthogonalLoop=1;jettySize=auto;html=1;exitX=1;exitY=0.25;exitDx=0;exitDy=0;entryX=0;entryY=0.5;entryDx=0;entryDy=0;endArrow=classic;endFill=1;" edge="1" parent="WIyWlLk6GJQsqaUBKTNV-1" source="oAdYO1nvRudMaTHA6pIa-20" target="oAdYO1nvRudMaTHA6pIa-27">
          <mxGeometry relative="1" as="geometry" />
        </mxCell>
        <mxCell id="oAdYO1nvRudMaTHA6pIa-20" value="&lt;b&gt;&lt;font style=&quot;font-size: 14px&quot;&gt;Google sheets&lt;br&gt;&lt;/font&gt;&lt;/b&gt;" style="text;html=1;strokeColor=none;fillColor=none;align=center;verticalAlign=middle;whiteSpace=wrap;rounded=0;" vertex="1" parent="WIyWlLk6GJQsqaUBKTNV-1">
          <mxGeometry x="439.5" y="230" width="76" height="50" as="geometry" />
        </mxCell>
        <mxCell id="oAdYO1nvRudMaTHA6pIa-59" style="edgeStyle=orthogonalEdgeStyle;rounded=0;orthogonalLoop=1;jettySize=auto;html=1;exitX=1;exitY=0;exitDx=0;exitDy=30;exitPerimeter=0;entryX=0;entryY=0.75;entryDx=0;entryDy=0;endArrow=classic;endFill=1;" edge="1" parent="WIyWlLk6GJQsqaUBKTNV-1" source="oAdYO1nvRudMaTHA6pIa-21" target="oAdYO1nvRudMaTHA6pIa-27">
          <mxGeometry relative="1" as="geometry">
            <Array as="points">
              <mxPoint x="517" y="320" />
              <mxPoint x="560" y="320" />
              <mxPoint x="560" y="230" />
            </Array>
          </mxGeometry>
        </mxCell>
        <mxCell id="oAdYO1nvRudMaTHA6pIa-21" value="" style="shape=cylinder3;whiteSpace=wrap;html=1;boundedLbl=1;backgroundOutline=1;size=15;fillColor=#d5e8d4;strokeColor=#82b366;" vertex="1" parent="WIyWlLk6GJQsqaUBKTNV-1">
          <mxGeometry x="430" y="300" width="87" height="90" as="geometry" />
        </mxCell>
        <mxCell id="oAdYO1nvRudMaTHA6pIa-58" style="edgeStyle=orthogonalEdgeStyle;rounded=0;orthogonalLoop=1;jettySize=auto;html=1;entryX=0;entryY=0.5;entryDx=0;entryDy=0;endArrow=classic;endFill=1;" edge="1" parent="WIyWlLk6GJQsqaUBKTNV-1" target="oAdYO1nvRudMaTHA6pIa-29">
          <mxGeometry relative="1" as="geometry">
            <mxPoint x="520" y="343" as="sourcePoint" />
          </mxGeometry>
        </mxCell>
        <mxCell id="oAdYO1nvRudMaTHA6pIa-22" value="&lt;b&gt;&lt;font style=&quot;font-size: 14px&quot;&gt;Google sheets&lt;br&gt;&lt;/font&gt;&lt;/b&gt;" style="text;html=1;strokeColor=none;fillColor=none;align=center;verticalAlign=middle;whiteSpace=wrap;rounded=0;" vertex="1" parent="WIyWlLk6GJQsqaUBKTNV-1">
          <mxGeometry x="435.5" y="330" width="76" height="50" as="geometry" />
        </mxCell>
        <mxCell id="oAdYO1nvRudMaTHA6pIa-60" style="edgeStyle=orthogonalEdgeStyle;rounded=0;orthogonalLoop=1;jettySize=auto;html=1;exitX=1;exitY=0.5;exitDx=0;exitDy=0;exitPerimeter=0;entryX=0;entryY=0.75;entryDx=0;entryDy=0;endArrow=classic;endFill=1;" edge="1" parent="WIyWlLk6GJQsqaUBKTNV-1" source="oAdYO1nvRudMaTHA6pIa-23" target="oAdYO1nvRudMaTHA6pIa-29">
          <mxGeometry relative="1" as="geometry" />
        </mxCell>
        <mxCell id="oAdYO1nvRudMaTHA6pIa-23" value="" style="shape=cylinder3;whiteSpace=wrap;html=1;boundedLbl=1;backgroundOutline=1;size=15;fillColor=#d5e8d4;strokeColor=#82b366;" vertex="1" parent="WIyWlLk6GJQsqaUBKTNV-1">
          <mxGeometry x="430" y="400" width="87" height="90" as="geometry" />
        </mxCell>
        <mxCell id="oAdYO1nvRudMaTHA6pIa-24" value="&lt;b&gt;&lt;font style=&quot;font-size: 14px&quot;&gt;Google sheets&lt;br&gt;&lt;/font&gt;&lt;/b&gt;" style="text;html=1;strokeColor=none;fillColor=none;align=center;verticalAlign=middle;whiteSpace=wrap;rounded=0;" vertex="1" parent="WIyWlLk6GJQsqaUBKTNV-1">
          <mxGeometry x="435.5" y="430" width="76" height="50" as="geometry" />
        </mxCell>
        <mxCell id="oAdYO1nvRudMaTHA6pIa-61" style="edgeStyle=orthogonalEdgeStyle;rounded=0;orthogonalLoop=1;jettySize=auto;html=1;exitX=1;exitY=0.5;exitDx=0;exitDy=0;exitPerimeter=0;entryX=0.25;entryY=1;entryDx=0;entryDy=0;endArrow=classic;endFill=1;" edge="1" parent="WIyWlLk6GJQsqaUBKTNV-1" source="oAdYO1nvRudMaTHA6pIa-25" target="oAdYO1nvRudMaTHA6pIa-29">
          <mxGeometry relative="1" as="geometry" />
        </mxCell>
        <mxCell id="oAdYO1nvRudMaTHA6pIa-25" value="" style="shape=cylinder3;whiteSpace=wrap;html=1;boundedLbl=1;backgroundOutline=1;size=15;fillColor=#d5e8d4;strokeColor=#82b366;" vertex="1" parent="WIyWlLk6GJQsqaUBKTNV-1">
          <mxGeometry x="430" y="495" width="87" height="90" as="geometry" />
        </mxCell>
        <mxCell id="oAdYO1nvRudMaTHA6pIa-26" value="&lt;b&gt;&lt;font style=&quot;font-size: 14px&quot;&gt;Google sheets&lt;br&gt;&lt;/font&gt;&lt;/b&gt;" style="text;html=1;strokeColor=none;fillColor=none;align=center;verticalAlign=middle;whiteSpace=wrap;rounded=0;" vertex="1" parent="WIyWlLk6GJQsqaUBKTNV-1">
          <mxGeometry x="435.5" y="525" width="76" height="50" as="geometry" />
        </mxCell>
        <mxCell id="oAdYO1nvRudMaTHA6pIa-81" style="edgeStyle=orthogonalEdgeStyle;rounded=0;orthogonalLoop=1;jettySize=auto;html=1;exitX=1;exitY=0.25;exitDx=0;exitDy=0;endArrow=classic;endFill=1;" edge="1" parent="WIyWlLk6GJQsqaUBKTNV-1" source="oAdYO1nvRudMaTHA6pIa-27" target="oAdYO1nvRudMaTHA6pIa-78">
          <mxGeometry relative="1" as="geometry">
            <Array as="points">
              <mxPoint x="720" y="190" />
              <mxPoint x="720" y="140" />
            </Array>
          </mxGeometry>
        </mxCell>
        <mxCell id="oAdYO1nvRudMaTHA6pIa-82" style="edgeStyle=orthogonalEdgeStyle;rounded=0;orthogonalLoop=1;jettySize=auto;html=1;exitX=1;exitY=0.5;exitDx=0;exitDy=0;endArrow=classic;endFill=1;" edge="1" parent="WIyWlLk6GJQsqaUBKTNV-1" source="oAdYO1nvRudMaTHA6pIa-27" target="oAdYO1nvRudMaTHA6pIa-79">
          <mxGeometry relative="1" as="geometry" />
        </mxCell>
        <mxCell id="oAdYO1nvRudMaTHA6pIa-91" style="edgeStyle=orthogonalEdgeStyle;rounded=0;orthogonalLoop=1;jettySize=auto;html=1;exitX=1;exitY=0.75;exitDx=0;exitDy=0;endArrow=classic;endFill=1;" edge="1" parent="WIyWlLk6GJQsqaUBKTNV-1" source="oAdYO1nvRudMaTHA6pIa-27" target="oAdYO1nvRudMaTHA6pIa-89">
          <mxGeometry relative="1" as="geometry">
            <Array as="points">
              <mxPoint x="720" y="230" />
              <mxPoint x="720" y="480" />
            </Array>
          </mxGeometry>
        </mxCell>
        <mxCell id="oAdYO1nvRudMaTHA6pIa-27" value="&#xa;&#xa;&lt;b style=&quot;color: rgb(0, 0, 0); font-family: helvetica; font-size: 12px; font-style: normal; letter-spacing: normal; text-align: center; text-indent: 0px; text-transform: none; word-spacing: 0px; background-color: rgb(248, 249, 250);&quot;&gt;.XLSX&lt;/b&gt;&#xa;&#xa;" style="whiteSpace=wrap;html=1;aspect=fixed;strokeColor=#82b366;fillColor=#d5e8d4;" vertex="1" parent="WIyWlLk6GJQsqaUBKTNV-1">
          <mxGeometry x="630" y="169.5" width="80" height="80" as="geometry" />
        </mxCell>
        <mxCell id="oAdYO1nvRudMaTHA6pIa-83" style="edgeStyle=orthogonalEdgeStyle;rounded=0;orthogonalLoop=1;jettySize=auto;html=1;exitX=1;exitY=0.5;exitDx=0;exitDy=0;endArrow=classic;endFill=1;" edge="1" parent="WIyWlLk6GJQsqaUBKTNV-1" source="oAdYO1nvRudMaTHA6pIa-29">
          <mxGeometry relative="1" as="geometry">
            <mxPoint x="739.9999999999995" y="360.47058823529414" as="targetPoint" />
          </mxGeometry>
        </mxCell>
        <mxCell id="oAdYO1nvRudMaTHA6pIa-88" style="edgeStyle=orthogonalEdgeStyle;rounded=0;orthogonalLoop=1;jettySize=auto;html=1;exitX=1;exitY=0.75;exitDx=0;exitDy=0;endArrow=classic;endFill=1;" edge="1" parent="WIyWlLk6GJQsqaUBKTNV-1" source="oAdYO1nvRudMaTHA6pIa-29" target="oAdYO1nvRudMaTHA6pIa-89">
          <mxGeometry relative="1" as="geometry">
            <mxPoint x="740" y="460" as="targetPoint" />
            <Array as="points">
              <mxPoint x="730" y="380" />
              <mxPoint x="730" y="460" />
            </Array>
          </mxGeometry>
        </mxCell>
        <mxCell id="oAdYO1nvRudMaTHA6pIa-29" value="&#xa;&#xa;&lt;b style=&quot;color: rgb(0, 0, 0); font-family: helvetica; font-size: 12px; font-style: normal; letter-spacing: normal; text-align: center; text-indent: 0px; text-transform: none; word-spacing: 0px; background-color: rgb(248, 249, 250);&quot;&gt;.XLSX&lt;/b&gt;&#xa;&#xa;" style="whiteSpace=wrap;html=1;aspect=fixed;fillColor=#d5e8d4;strokeColor=#82b366;" vertex="1" parent="WIyWlLk6GJQsqaUBKTNV-1">
          <mxGeometry x="630" y="320" width="80" height="80" as="geometry" />
        </mxCell>
        <mxCell id="oAdYO1nvRudMaTHA6pIa-101" style="edgeStyle=orthogonalEdgeStyle;rounded=0;orthogonalLoop=1;jettySize=auto;html=1;exitX=1;exitY=0;exitDx=0;exitDy=32.5;exitPerimeter=0;entryX=0.006;entryY=0.228;entryDx=0;entryDy=0;entryPerimeter=0;endArrow=classic;endFill=1;" edge="1" parent="WIyWlLk6GJQsqaUBKTNV-1" source="oAdYO1nvRudMaTHA6pIa-62" target="oAdYO1nvRudMaTHA6pIa-77">
          <mxGeometry relative="1" as="geometry">
            <Array as="points">
              <mxPoint x="121" y="834" />
            </Array>
          </mxGeometry>
        </mxCell>
        <mxCell id="oAdYO1nvRudMaTHA6pIa-62" value="&lt;font style=&quot;font-size: 14px&quot;&gt;&lt;b&gt;CRM Sales&lt;br&gt;&lt;br&gt;&lt;/b&gt;&lt;/font&gt;" style="shape=cylinder3;whiteSpace=wrap;html=1;boundedLbl=1;backgroundOutline=1;size=15;fillColor=#dae8fc;strokeColor=#6c8ebf;" vertex="1" parent="WIyWlLk6GJQsqaUBKTNV-1">
          <mxGeometry x="41" y="760" width="80" height="100" as="geometry" />
        </mxCell>
        <mxCell id="oAdYO1nvRudMaTHA6pIa-102" style="edgeStyle=orthogonalEdgeStyle;rounded=0;orthogonalLoop=1;jettySize=auto;html=1;exitX=1;exitY=0.25;exitDx=0;exitDy=0;entryX=0.006;entryY=0.378;entryDx=0;entryDy=0;entryPerimeter=0;endArrow=classic;endFill=1;" edge="1" parent="WIyWlLk6GJQsqaUBKTNV-1" source="oAdYO1nvRudMaTHA6pIa-63" target="oAdYO1nvRudMaTHA6pIa-77">
          <mxGeometry relative="1" as="geometry">
            <Array as="points">
              <mxPoint x="121" y="970" />
              <mxPoint x="211" y="970" />
              <mxPoint x="211" y="857" />
            </Array>
          </mxGeometry>
        </mxCell>
        <mxCell id="oAdYO1nvRudMaTHA6pIa-63" value="&lt;b&gt;HR Employees&lt;/b&gt;" style="rounded=0;whiteSpace=wrap;html=1;fillColor=#d5e8d4;strokeColor=#82b366;" vertex="1" parent="WIyWlLk6GJQsqaUBKTNV-1">
          <mxGeometry x="41" y="880" width="80" height="70" as="geometry" />
        </mxCell>
        <mxCell id="oAdYO1nvRudMaTHA6pIa-103" style="edgeStyle=orthogonalEdgeStyle;rounded=0;orthogonalLoop=1;jettySize=auto;html=1;exitX=1;exitY=0.25;exitDx=0;exitDy=0;entryX=0;entryY=0.539;entryDx=0;entryDy=0;entryPerimeter=0;endArrow=classic;endFill=1;" edge="1" parent="WIyWlLk6GJQsqaUBKTNV-1" source="oAdYO1nvRudMaTHA6pIa-64" target="oAdYO1nvRudMaTHA6pIa-77">
          <mxGeometry relative="1" as="geometry">
            <Array as="points">
              <mxPoint x="221" y="990" />
              <mxPoint x="221" y="881" />
            </Array>
          </mxGeometry>
        </mxCell>
        <mxCell id="oAdYO1nvRudMaTHA6pIa-64" value="&lt;pre class=&quot;tw-data-text tw-text-large XcVN5d tw-ta&quot; id=&quot;tw-target-text&quot; dir=&quot;ltr&quot; style=&quot;line-height: 36px ; border: none ; padding: 2px 0.14em 2px 0px ; position: relative ; margin-top: -2px ; margin-bottom: -2px ; resize: none ; overflow: hidden ; width: 270px ; overflow-wrap: break-word ; color: rgb(32 , 33 , 36)&quot;&gt;&lt;span lang=&quot;en&quot;&gt;&lt;font style=&quot;font-size: 14px&quot;&gt;&lt;b&gt;new &lt;/b&gt;&lt;/font&gt;&lt;/span&gt;&lt;/pre&gt;&lt;pre class=&quot;tw-data-text tw-text-large XcVN5d tw-ta&quot; id=&quot;tw-target-text&quot; dir=&quot;ltr&quot; style=&quot;line-height: 36px ; border: none ; padding: 2px 0.14em 2px 0px ; position: relative ; margin-top: -2px ; margin-bottom: -2px ; resize: none ; overflow: hidden ; width: 270px ; overflow-wrap: break-word ; color: rgb(32 , 33 , 36)&quot;&gt;&lt;span lang=&quot;en&quot;&gt;&lt;font style=&quot;font-size: 14px&quot;&gt;&lt;b&gt;buildings&lt;/b&gt;&lt;/font&gt;&lt;/span&gt;&lt;/pre&gt;" style="whiteSpace=wrap;html=1;aspect=fixed;align=center;fillColor=#ffff88;" vertex="1" parent="WIyWlLk6GJQsqaUBKTNV-1">
          <mxGeometry x="41" y="970" width="80" height="80" as="geometry" />
        </mxCell>
        <mxCell id="oAdYO1nvRudMaTHA6pIa-70" value="" style="rounded=0;whiteSpace=wrap;html=1;fillColor=#fff2cc;" vertex="1" parent="WIyWlLk6GJQsqaUBKTNV-1">
          <mxGeometry x="41" y="1050" width="80" height="10" as="geometry" />
        </mxCell>
        <mxCell id="oAdYO1nvRudMaTHA6pIa-72" value="" style="rounded=0;whiteSpace=wrap;html=1;fillColor=#ffff88;" vertex="1" parent="WIyWlLk6GJQsqaUBKTNV-1">
          <mxGeometry x="41" y="1060" width="80" height="10" as="geometry" />
        </mxCell>
        <mxCell id="oAdYO1nvRudMaTHA6pIa-73" value="" style="rounded=0;whiteSpace=wrap;html=1;fillColor=#fff2cc;" vertex="1" parent="WIyWlLk6GJQsqaUBKTNV-1">
          <mxGeometry x="41" y="1070" width="80" height="10" as="geometry" />
        </mxCell>
        <mxCell id="oAdYO1nvRudMaTHA6pIa-74" value="&lt;font style=&quot;font-size: 18px&quot;&gt;&lt;b&gt;Source&lt;/b&gt;&lt;/font&gt;" style="text;html=1;strokeColor=none;fillColor=none;align=center;verticalAlign=middle;whiteSpace=wrap;rounded=0;" vertex="1" parent="WIyWlLk6GJQsqaUBKTNV-1">
          <mxGeometry x="90" y="670" width="120" height="60" as="geometry" />
        </mxCell>
        <mxCell id="oAdYO1nvRudMaTHA6pIa-75" value="&lt;font style=&quot;font-size: 18px&quot;&gt;&lt;b&gt;Storage&lt;/b&gt;&lt;/font&gt;" style="text;html=1;strokeColor=none;fillColor=none;align=center;verticalAlign=middle;whiteSpace=wrap;rounded=0;" vertex="1" parent="WIyWlLk6GJQsqaUBKTNV-1">
          <mxGeometry x="284.5" y="670" width="120" height="60" as="geometry" />
        </mxCell>
        <mxCell id="oAdYO1nvRudMaTHA6pIa-76" value="&lt;font style=&quot;font-size: 18px&quot;&gt;&lt;b&gt;Buisness&lt;/b&gt;&lt;/font&gt;" style="text;html=1;strokeColor=none;fillColor=none;align=center;verticalAlign=middle;whiteSpace=wrap;rounded=0;" vertex="1" parent="WIyWlLk6GJQsqaUBKTNV-1">
          <mxGeometry x="660" y="670" width="120" height="60" as="geometry" />
        </mxCell>
        <mxCell id="oAdYO1nvRudMaTHA6pIa-107" style="edgeStyle=orthogonalEdgeStyle;rounded=0;orthogonalLoop=1;jettySize=auto;html=1;exitX=1;exitY=0;exitDx=0;exitDy=45;exitPerimeter=0;entryX=0;entryY=0.5;entryDx=0;entryDy=0;endArrow=classic;endFill=1;" edge="1" parent="WIyWlLk6GJQsqaUBKTNV-1" source="oAdYO1nvRudMaTHA6pIa-77" target="oAdYO1nvRudMaTHA6pIa-98">
          <mxGeometry relative="1" as="geometry">
            <Array as="points">
              <mxPoint x="441" y="845" />
              <mxPoint x="441" y="810" />
            </Array>
          </mxGeometry>
        </mxCell>
        <mxCell id="oAdYO1nvRudMaTHA6pIa-108" style="edgeStyle=orthogonalEdgeStyle;rounded=0;orthogonalLoop=1;jettySize=auto;html=1;exitX=1;exitY=0.5;exitDx=0;exitDy=0;exitPerimeter=0;entryX=0;entryY=0.5;entryDx=0;entryDy=0;endArrow=classic;endFill=1;" edge="1" parent="WIyWlLk6GJQsqaUBKTNV-1" source="oAdYO1nvRudMaTHA6pIa-77" target="oAdYO1nvRudMaTHA6pIa-100">
          <mxGeometry relative="1" as="geometry">
            <Array as="points">
              <mxPoint x="456" y="875" />
              <mxPoint x="456" y="860" />
            </Array>
          </mxGeometry>
        </mxCell>
        <mxCell id="oAdYO1nvRudMaTHA6pIa-77" value="&lt;b&gt;&lt;font style=&quot;font-size: 18px&quot;&gt;DWH&lt;/font&gt;&lt;/b&gt;" style="shape=cylinder3;whiteSpace=wrap;html=1;boundedLbl=1;backgroundOutline=1;size=15;fillColor=#dae8fc;strokeColor=#6c8ebf;" vertex="1" parent="WIyWlLk6GJQsqaUBKTNV-1">
          <mxGeometry x="276" y="800" width="137" height="150" as="geometry" />
        </mxCell>
        <mxCell id="oAdYO1nvRudMaTHA6pIa-78" value="Agent" style="shape=umlActor;verticalLabelPosition=bottom;verticalAlign=top;html=1;outlineConnect=0;" vertex="1" parent="WIyWlLk6GJQsqaUBKTNV-1">
          <mxGeometry x="750" y="100" width="30" height="60" as="geometry" />
        </mxCell>
        <mxCell id="oAdYO1nvRudMaTHA6pIa-79" value="Lead" style="shape=umlActor;verticalLabelPosition=bottom;verticalAlign=top;html=1;outlineConnect=0;" vertex="1" parent="WIyWlLk6GJQsqaUBKTNV-1">
          <mxGeometry x="749" y="220" width="30" height="60" as="geometry" />
        </mxCell>
        <mxCell id="oAdYO1nvRudMaTHA6pIa-80" value="CEO" style="shape=umlActor;verticalLabelPosition=bottom;verticalAlign=top;html=1;outlineConnect=0;" vertex="1" parent="WIyWlLk6GJQsqaUBKTNV-1">
          <mxGeometry x="750" y="330" width="30" height="60" as="geometry" />
        </mxCell>
        <mxCell id="oAdYO1nvRudMaTHA6pIa-89" value="Analysts&lt;br&gt;" style="shape=umlActor;verticalLabelPosition=bottom;verticalAlign=top;html=1;outlineConnect=0;" vertex="1" parent="WIyWlLk6GJQsqaUBKTNV-1">
          <mxGeometry x="750" y="435" width="30" height="60" as="geometry" />
        </mxCell>
        <mxCell id="oAdYO1nvRudMaTHA6pIa-96" value="&lt;b&gt;&lt;font style=&quot;font-size: 14px&quot;&gt;BI&lt;/font&gt;&lt;/b&gt;" style="text;html=1;strokeColor=none;fillColor=none;align=center;verticalAlign=middle;whiteSpace=wrap;rounded=0;" vertex="1" parent="WIyWlLk6GJQsqaUBKTNV-1">
          <mxGeometry x="511" y="730" width="80" height="50" as="geometry" />
        </mxCell>
        <mxCell id="oAdYO1nvRudMaTHA6pIa-98" value="&lt;b&gt;&lt;font style=&quot;font-size: 14px&quot;&gt;Power BI&lt;/font&gt;&lt;/b&gt;" style="ellipse;whiteSpace=wrap;html=1;fillColor=#cce5ff;strokeColor=#36393d;" vertex="1" parent="WIyWlLk6GJQsqaUBKTNV-1">
          <mxGeometry x="500" y="790" width="102" height="40" as="geometry" />
        </mxCell>
        <mxCell id="oAdYO1nvRudMaTHA6pIa-100" value="&lt;span style=&quot;font-size: 14px&quot;&gt;&lt;b&gt;Excel /&lt;br&gt;&amp;nbsp; &amp;nbsp; &amp;nbsp;G Sheets&lt;br&gt;&lt;/b&gt;&lt;/span&gt;" style="ellipse;whiteSpace=wrap;html=1;fillColor=#cdeb8b;strokeColor=#36393d;" vertex="1" parent="WIyWlLk6GJQsqaUBKTNV-1">
          <mxGeometry x="498.5" y="840" width="101" height="40" as="geometry" />
        </mxCell>
        <mxCell id="oAdYO1nvRudMaTHA6pIa-105" value="&lt;b&gt;ETL/ELT&amp;nbsp;&lt;br&gt;Python, Pentaho&lt;/b&gt;" style="text;html=1;align=center;verticalAlign=middle;resizable=0;points=[];autosize=1;" vertex="1" parent="WIyWlLk6GJQsqaUBKTNV-1">
          <mxGeometry x="141" y="795" width="110" height="30" as="geometry" />
        </mxCell>
        <mxCell id="oAdYO1nvRudMaTHA6pIa-106" value="&lt;b&gt;&lt;font style=&quot;font-size: 14px&quot;&gt;SQL&lt;/font&gt;&lt;/b&gt;" style="text;html=1;strokeColor=none;fillColor=none;align=center;verticalAlign=middle;whiteSpace=wrap;rounded=0;" vertex="1" parent="WIyWlLk6GJQsqaUBKTNV-1">
          <mxGeometry x="439" y="780" width="40" height="20" as="geometry" />
        </mxCell>
        <mxCell id="oAdYO1nvRudMaTHA6pIa-109" value="" style="aspect=fixed;pointerEvents=1;shadow=0;dashed=0;html=1;strokeColor=none;labelPosition=center;verticalLabelPosition=bottom;verticalAlign=top;align=center;fillColor=#00188D;shape=mxgraph.mscae.general.graph" vertex="1" parent="WIyWlLk6GJQsqaUBKTNV-1">
          <mxGeometry x="641" y="775" width="50" height="50" as="geometry" />
        </mxCell>
        <mxCell id="oAdYO1nvRudMaTHA6pIa-120" value="&lt;table border=&quot;1&quot; width=&quot;100%&quot; cellpadding=&quot;4&quot; style=&quot;width: 100% ; height: 100% ; border-collapse: collapse ; font-size: 7px&quot;&gt;&lt;tbody&gt;&lt;tr style=&quot;background-color: #a7c942 ; color: #ffffff ; border: 1px solid #98bf21&quot;&gt;&lt;th align=&quot;left&quot;&gt;&lt;font style=&quot;font-size: 7px&quot;&gt;Title 1&lt;/font&gt;&lt;/th&gt;&lt;th align=&quot;left&quot;&gt;&lt;font style=&quot;font-size: 7px&quot;&gt;Title 2&lt;/font&gt;&lt;/th&gt;&lt;th align=&quot;left&quot;&gt;&lt;font style=&quot;font-size: 7px&quot;&gt;Title 3&lt;/font&gt;&lt;/th&gt;&lt;/tr&gt;&lt;tr style=&quot;border: 1px solid #98bf21&quot;&gt;&lt;td&gt;&lt;font style=&quot;font-size: 7px&quot;&gt;Value 1&lt;/font&gt;&lt;/td&gt;&lt;td&gt;&lt;font style=&quot;font-size: 7px&quot;&gt;Value 2&lt;/font&gt;&lt;/td&gt;&lt;td&gt;&lt;font style=&quot;font-size: 7px&quot;&gt;Value 3&lt;/font&gt;&lt;/td&gt;&lt;/tr&gt;&lt;tr style=&quot;background-color: #eaf2d3 ; border: 1px solid #98bf21&quot;&gt;&lt;td&gt;&lt;font style=&quot;font-size: 7px&quot;&gt;Value 4&lt;/font&gt;&lt;/td&gt;&lt;td&gt;&lt;font style=&quot;font-size: 7px&quot;&gt;Value 5&lt;/font&gt;&lt;/td&gt;&lt;td&gt;&lt;font style=&quot;font-size: 7px&quot;&gt;Value 6&lt;/font&gt;&lt;/td&gt;&lt;/tr&gt;&lt;tr style=&quot;border: 1px solid #98bf21&quot;&gt;&lt;td&gt;&lt;font style=&quot;font-size: 7px&quot;&gt;Value 7&lt;/font&gt;&lt;/td&gt;&lt;td&gt;&lt;font style=&quot;font-size: 7px&quot;&gt;Value 8&lt;/font&gt;&lt;/td&gt;&lt;td&gt;&lt;font style=&quot;font-size: 7px&quot;&gt;Value 9&lt;/font&gt;&lt;/td&gt;&lt;/tr&gt;&lt;tr style=&quot;background-color: #eaf2d3 ; border: 1px solid #98bf21&quot;&gt;&lt;td&gt;&lt;font style=&quot;font-size: 7px&quot;&gt;Value 10&lt;/font&gt;&lt;/td&gt;&lt;td&gt;&lt;font style=&quot;font-size: 7px&quot;&gt;Value 11&lt;/font&gt;&lt;/td&gt;&lt;td&gt;&lt;font style=&quot;font-size: 7px&quot;&gt;Value 12&lt;/font&gt;&lt;/td&gt;&lt;/tr&gt;&lt;/tbody&gt;&lt;/table&gt;" style="text;html=1;fillColor=#f5f5f5;overflow=fill;rounded=0;fontColor=#333333;strokeColor=#000000;" vertex="1" parent="WIyWlLk6GJQsqaUBKTNV-1">
          <mxGeometry x="610" y="850" width="120" height="90" as="geometry" />
        </mxCell>
        <mxCell id="oAdYO1nvRudMaTHA6pIa-121" value="Agent" style="shape=umlActor;verticalLabelPosition=bottom;verticalAlign=top;html=1;outlineConnect=0;" vertex="1" parent="WIyWlLk6GJQsqaUBKTNV-1">
          <mxGeometry x="750" y="735" width="30" height="60" as="geometry" />
        </mxCell>
        <mxCell id="oAdYO1nvRudMaTHA6pIa-122" value="Lead" style="shape=umlActor;verticalLabelPosition=bottom;verticalAlign=top;html=1;outlineConnect=0;" vertex="1" parent="WIyWlLk6GJQsqaUBKTNV-1">
          <mxGeometry x="790" y="805" width="30" height="60" as="geometry" />
        </mxCell>
        <mxCell id="oAdYO1nvRudMaTHA6pIa-123" value="CEO" style="shape=umlActor;verticalLabelPosition=bottom;verticalAlign=top;html=1;outlineConnect=0;" vertex="1" parent="WIyWlLk6GJQsqaUBKTNV-1">
          <mxGeometry x="750" y="875" width="30" height="60" as="geometry" />
        </mxCell>
        <mxCell id="oAdYO1nvRudMaTHA6pIa-124" value="Analysys" style="shape=umlActor;verticalLabelPosition=bottom;verticalAlign=top;html=1;outlineConnect=0;" vertex="1" parent="WIyWlLk6GJQsqaUBKTNV-1">
          <mxGeometry x="780" y="965" width="30" height="60" as="geometry" />
        </mxCell>
        <mxCell id="oAdYO1nvRudMaTHA6pIa-135" style="edgeStyle=orthogonalEdgeStyle;rounded=0;orthogonalLoop=1;jettySize=auto;html=1;exitX=1;exitY=1;exitDx=0;exitDy=0;entryX=0;entryY=0;entryDx=0;entryDy=30;entryPerimeter=0;endArrow=classic;endFill=1;" edge="1" parent="WIyWlLk6GJQsqaUBKTNV-1" source="oAdYO1nvRudMaTHA6pIa-134" target="oAdYO1nvRudMaTHA6pIa-21">
          <mxGeometry relative="1" as="geometry">
            <Array as="points">
              <mxPoint x="370" y="228" />
              <mxPoint x="370" y="330" />
            </Array>
          </mxGeometry>
        </mxCell>
        <mxCell id="oAdYO1nvRudMaTHA6pIa-154" style="edgeStyle=orthogonalEdgeStyle;rounded=0;orthogonalLoop=1;jettySize=auto;html=1;exitX=0.5;exitY=1;exitDx=0;exitDy=0;endArrow=classic;endFill=1;" edge="1" parent="WIyWlLk6GJQsqaUBKTNV-1" source="oAdYO1nvRudMaTHA6pIa-134">
          <mxGeometry relative="1" as="geometry">
            <mxPoint x="300" y="270" as="targetPoint" />
          </mxGeometry>
        </mxCell>
        <mxCell id="oAdYO1nvRudMaTHA6pIa-155" style="edgeStyle=orthogonalEdgeStyle;rounded=0;orthogonalLoop=1;jettySize=auto;html=1;exitX=0;exitY=1;exitDx=0;exitDy=0;endArrow=classic;endFill=1;" edge="1" parent="WIyWlLk6GJQsqaUBKTNV-1" source="oAdYO1nvRudMaTHA6pIa-134">
          <mxGeometry relative="1" as="geometry">
            <mxPoint x="258" y="270" as="targetPoint" />
          </mxGeometry>
        </mxCell>
        <mxCell id="oAdYO1nvRudMaTHA6pIa-134" value="&lt;b&gt;&lt;font style=&quot;font-size: 14px&quot;&gt;BI&lt;/font&gt;&lt;/b&gt;" style="ellipse;whiteSpace=wrap;html=1;fillColor=#dae8fc;strokeColor=#6c8ebf;" vertex="1" parent="WIyWlLk6GJQsqaUBKTNV-1">
          <mxGeometry x="240" y="160" width="120" height="80" as="geometry" />
        </mxCell>
        <mxCell id="oAdYO1nvRudMaTHA6pIa-137" style="edgeStyle=orthogonalEdgeStyle;rounded=0;orthogonalLoop=1;jettySize=auto;html=1;exitX=1;exitY=0;exitDx=0;exitDy=32.5;exitPerimeter=0;endArrow=classic;endFill=1;entryX=0;entryY=0;entryDx=0;entryDy=45;entryPerimeter=0;" edge="1" parent="WIyWlLk6GJQsqaUBKTNV-1" source="oAdYO1nvRudMaTHA6pIa-138" target="oAdYO1nvRudMaTHA6pIa-146">
          <mxGeometry relative="1" as="geometry">
            <Array as="points">
              <mxPoint x="-82" y="234" />
              <mxPoint x="48" y="234" />
            </Array>
            <mxPoint x="40" y="234" as="targetPoint" />
          </mxGeometry>
        </mxCell>
        <mxCell id="oAdYO1nvRudMaTHA6pIa-138" value="&lt;font style=&quot;font-size: 14px&quot;&gt;&lt;b&gt;CRM Sales&lt;br&gt;&lt;br&gt;&lt;/b&gt;&lt;/font&gt;" style="shape=cylinder3;whiteSpace=wrap;html=1;boundedLbl=1;backgroundOutline=1;size=15;fillColor=#cce5ff;strokeColor=#36393d;" vertex="1" parent="WIyWlLk6GJQsqaUBKTNV-1">
          <mxGeometry x="-162" y="160" width="80" height="100" as="geometry" />
        </mxCell>
        <mxCell id="oAdYO1nvRudMaTHA6pIa-139" style="edgeStyle=orthogonalEdgeStyle;rounded=0;orthogonalLoop=1;jettySize=auto;html=1;exitX=1;exitY=0.25;exitDx=0;exitDy=0;endArrow=classic;endFill=1;" edge="1" parent="WIyWlLk6GJQsqaUBKTNV-1" source="oAdYO1nvRudMaTHA6pIa-140">
          <mxGeometry relative="1" as="geometry">
            <Array as="points">
              <mxPoint x="-82" y="370" />
              <mxPoint x="8" y="370" />
              <mxPoint x="8" y="257" />
            </Array>
            <mxPoint x="40" y="257" as="targetPoint" />
          </mxGeometry>
        </mxCell>
        <mxCell id="oAdYO1nvRudMaTHA6pIa-140" value="&lt;b&gt;HR Employees&lt;/b&gt;" style="rounded=0;whiteSpace=wrap;html=1;fillColor=#ffcccc;strokeColor=#36393d;" vertex="1" parent="WIyWlLk6GJQsqaUBKTNV-1">
          <mxGeometry x="-162" y="280" width="80" height="70" as="geometry" />
        </mxCell>
        <mxCell id="oAdYO1nvRudMaTHA6pIa-141" style="edgeStyle=orthogonalEdgeStyle;rounded=0;orthogonalLoop=1;jettySize=auto;html=1;exitX=1;exitY=0.25;exitDx=0;exitDy=0;entryX=-0.036;entryY=0.6;entryDx=0;entryDy=0;entryPerimeter=0;endArrow=classic;endFill=1;" edge="1" parent="WIyWlLk6GJQsqaUBKTNV-1" source="oAdYO1nvRudMaTHA6pIa-142" target="oAdYO1nvRudMaTHA6pIa-146">
          <mxGeometry relative="1" as="geometry">
            <Array as="points">
              <mxPoint x="18" y="390" />
              <mxPoint x="18" y="281" />
            </Array>
          </mxGeometry>
        </mxCell>
        <mxCell id="oAdYO1nvRudMaTHA6pIa-142" value="&lt;pre class=&quot;tw-data-text tw-text-large XcVN5d tw-ta&quot; id=&quot;tw-target-text&quot; dir=&quot;ltr&quot; style=&quot;line-height: 36px ; border: none ; padding: 2px 0.14em 2px 0px ; position: relative ; margin-top: -2px ; margin-bottom: -2px ; resize: none ; overflow: hidden ; width: 270px ; overflow-wrap: break-word ; color: rgb(32 , 33 , 36)&quot;&gt;&lt;span lang=&quot;en&quot;&gt;&lt;font style=&quot;font-size: 14px&quot;&gt;&lt;b&gt;new &lt;/b&gt;&lt;/font&gt;&lt;/span&gt;&lt;/pre&gt;&lt;pre class=&quot;tw-data-text tw-text-large XcVN5d tw-ta&quot; id=&quot;tw-target-text&quot; dir=&quot;ltr&quot; style=&quot;line-height: 36px ; border: none ; padding: 2px 0.14em 2px 0px ; position: relative ; margin-top: -2px ; margin-bottom: -2px ; resize: none ; overflow: hidden ; width: 270px ; overflow-wrap: break-word ; color: rgb(32 , 33 , 36)&quot;&gt;&lt;span lang=&quot;en&quot;&gt;&lt;font style=&quot;font-size: 14px&quot;&gt;&lt;b&gt;buildings&lt;/b&gt;&lt;/font&gt;&lt;/span&gt;&lt;/pre&gt;" style="whiteSpace=wrap;html=1;aspect=fixed;align=center;fillColor=#ffff88;strokeColor=#36393d;" vertex="1" parent="WIyWlLk6GJQsqaUBKTNV-1">
          <mxGeometry x="-162" y="370" width="80" height="80" as="geometry" />
        </mxCell>
        <mxCell id="oAdYO1nvRudMaTHA6pIa-143" value="" style="rounded=0;whiteSpace=wrap;html=1;fillColor=#fff2cc;" vertex="1" parent="WIyWlLk6GJQsqaUBKTNV-1">
          <mxGeometry x="-162" y="450" width="80" height="10" as="geometry" />
        </mxCell>
        <mxCell id="oAdYO1nvRudMaTHA6pIa-144" value="" style="rounded=0;whiteSpace=wrap;html=1;fillColor=#ffff88;strokeColor=#36393d;" vertex="1" parent="WIyWlLk6GJQsqaUBKTNV-1">
          <mxGeometry x="-162" y="460" width="80" height="10" as="geometry" />
        </mxCell>
        <mxCell id="oAdYO1nvRudMaTHA6pIa-145" value="" style="rounded=0;whiteSpace=wrap;html=1;fillColor=#fff2cc;" vertex="1" parent="WIyWlLk6GJQsqaUBKTNV-1">
          <mxGeometry x="-162" y="470" width="80" height="10" as="geometry" />
        </mxCell>
        <mxCell id="oAdYO1nvRudMaTHA6pIa-151" style="edgeStyle=orthogonalEdgeStyle;rounded=0;orthogonalLoop=1;jettySize=auto;html=1;exitX=1;exitY=0;exitDx=0;exitDy=45;exitPerimeter=0;entryX=0.017;entryY=0.275;entryDx=0;entryDy=0;entryPerimeter=0;endArrow=classic;endFill=1;" edge="1" parent="WIyWlLk6GJQsqaUBKTNV-1" source="oAdYO1nvRudMaTHA6pIa-146" target="oAdYO1nvRudMaTHA6pIa-134">
          <mxGeometry relative="1" as="geometry" />
        </mxCell>
        <mxCell id="oAdYO1nvRudMaTHA6pIa-152" style="edgeStyle=orthogonalEdgeStyle;rounded=0;orthogonalLoop=1;jettySize=auto;html=1;exitX=1;exitY=0.5;exitDx=0;exitDy=0;exitPerimeter=0;entryX=-0.008;entryY=0.588;entryDx=0;entryDy=0;entryPerimeter=0;endArrow=classic;endFill=1;" edge="1" parent="WIyWlLk6GJQsqaUBKTNV-1" source="oAdYO1nvRudMaTHA6pIa-146" target="oAdYO1nvRudMaTHA6pIa-134">
          <mxGeometry relative="1" as="geometry">
            <Array as="points">
              <mxPoint x="200" y="265" />
              <mxPoint x="200" y="207" />
            </Array>
          </mxGeometry>
        </mxCell>
        <mxCell id="oAdYO1nvRudMaTHA6pIa-146" value="&lt;b&gt;&lt;font style=&quot;font-size: 18px&quot;&gt;DWH&lt;/font&gt;&lt;/b&gt;" style="shape=cylinder3;whiteSpace=wrap;html=1;boundedLbl=1;backgroundOutline=1;size=15;fillColor=#f5f5f5;strokeColor=#666666;fontColor=#333333;" vertex="1" parent="WIyWlLk6GJQsqaUBKTNV-1">
          <mxGeometry x="48" y="190" width="137" height="150" as="geometry" />
        </mxCell>
        <mxCell id="oAdYO1nvRudMaTHA6pIa-147" value="&lt;b&gt;ETL/ELT&amp;nbsp;&lt;br&gt;Python, Pentaho&lt;/b&gt;" style="text;html=1;align=center;verticalAlign=middle;resizable=0;points=[];autosize=1;" vertex="1" parent="WIyWlLk6GJQsqaUBKTNV-1">
          <mxGeometry x="-62" y="195" width="110" height="30" as="geometry" />
        </mxCell>
        <mxCell id="oAdYO1nvRudMaTHA6pIa-149" value="&lt;font style=&quot;font-size: 18px&quot;&gt;&lt;b&gt;Storage&lt;/b&gt;&lt;/font&gt;" style="text;html=1;strokeColor=none;fillColor=none;align=center;verticalAlign=middle;whiteSpace=wrap;rounded=0;" vertex="1" parent="WIyWlLk6GJQsqaUBKTNV-1">
          <mxGeometry x="401" y="20" width="120" height="60" as="geometry" />
        </mxCell>
        <mxCell id="oAdYO1nvRudMaTHA6pIa-150" value="&lt;font style=&quot;font-size: 18px&quot;&gt;&lt;b&gt;Source&lt;/b&gt;&lt;/font&gt;" style="text;html=1;strokeColor=none;fillColor=none;align=center;verticalAlign=middle;whiteSpace=wrap;rounded=0;" vertex="1" parent="WIyWlLk6GJQsqaUBKTNV-1">
          <mxGeometry x="230" y="20" width="120" height="60" as="geometry" />
        </mxCell>
        <mxCell id="oAdYO1nvRudMaTHA6pIa-178" value="Employee_actions&#xa;" style="swimlane;fontStyle=3;align=center;verticalAlign=top;childLayout=stackLayout;horizontal=1;startSize=26;horizontalStack=0;resizeParent=1;resizeLast=0;collapsible=1;marginBottom=0;rounded=0;shadow=0;strokeWidth=2;fontColor=#333333;fillColor=#f5f5f5;strokeColor=#666666;" vertex="1" parent="WIyWlLk6GJQsqaUBKTNV-1">
          <mxGeometry x="-242" y="1673" width="160" height="160" as="geometry">
            <mxRectangle x="130" y="380" width="160" height="26" as="alternateBounds" />
          </mxGeometry>
        </mxCell>
        <mxCell id="oAdYO1nvRudMaTHA6pIa-186" value="id" style="text;align=left;verticalAlign=top;spacingLeft=4;spacingRight=4;overflow=hidden;rotatable=0;points=[[0,0.5],[1,0.5]];portConstraint=eastwest;" vertex="1" parent="oAdYO1nvRudMaTHA6pIa-178">
          <mxGeometry y="26" width="160" height="26" as="geometry" />
        </mxCell>
        <mxCell id="oAdYO1nvRudMaTHA6pIa-187" value="employee_id" style="text;align=left;verticalAlign=top;spacingLeft=4;spacingRight=4;overflow=hidden;rotatable=0;points=[[0,0.5],[1,0.5]];portConstraint=eastwest;fillColor=#f9f7ed;strokeColor=#36393d;" vertex="1" parent="oAdYO1nvRudMaTHA6pIa-178">
          <mxGeometry y="52" width="160" height="26" as="geometry" />
        </mxCell>
        <mxCell id="oAdYO1nvRudMaTHA6pIa-203" value="action_type" style="text;html=1;align=left;verticalAlign=middle;resizable=0;points=[];autosize=1;" vertex="1" parent="oAdYO1nvRudMaTHA6pIa-178">
          <mxGeometry y="78" width="160" height="20" as="geometry" />
        </mxCell>
        <mxCell id="oAdYO1nvRudMaTHA6pIa-204" value="employee_id" style="text;align=left;verticalAlign=top;spacingLeft=4;spacingRight=4;overflow=hidden;rotatable=0;points=[[0,0.5],[1,0.5]];portConstraint=eastwest;" vertex="1" parent="oAdYO1nvRudMaTHA6pIa-178">
          <mxGeometry y="98" width="160" height="2" as="geometry" />
        </mxCell>
        <mxCell id="oAdYO1nvRudMaTHA6pIa-181" value="" style="line;html=1;strokeWidth=1;align=left;verticalAlign=middle;spacingTop=-1;spacingLeft=3;spacingRight=3;rotatable=0;labelPosition=right;points=[];portConstraint=eastwest;" vertex="1" parent="oAdYO1nvRudMaTHA6pIa-178">
          <mxGeometry y="100" width="160" height="60" as="geometry" />
        </mxCell>
        <mxCell id="oAdYO1nvRudMaTHA6pIa-191" value="Departments" style="swimlane;fontStyle=3;align=center;verticalAlign=top;childLayout=stackLayout;horizontal=1;startSize=26;horizontalStack=0;resizeParent=1;resizeLast=0;collapsible=1;marginBottom=0;rounded=0;shadow=0;strokeWidth=2;fontColor=#333333;fillColor=#f5f5f5;strokeColor=#666666;" vertex="1" parent="WIyWlLk6GJQsqaUBKTNV-1">
          <mxGeometry x="-740" y="1540" width="160" height="160" as="geometry">
            <mxRectangle x="130" y="380" width="160" height="26" as="alternateBounds" />
          </mxGeometry>
        </mxCell>
        <mxCell id="oAdYO1nvRudMaTHA6pIa-192" value="id" style="text;align=left;verticalAlign=top;spacingLeft=4;spacingRight=4;overflow=hidden;rotatable=0;points=[[0,0.5],[1,0.5]];portConstraint=eastwest;fillColor=#f9f7ed;strokeColor=#36393d;" vertex="1" parent="oAdYO1nvRudMaTHA6pIa-191">
          <mxGeometry y="26" width="160" height="26" as="geometry" />
        </mxCell>
        <mxCell id="oAdYO1nvRudMaTHA6pIa-193" value="department_name" style="text;align=left;verticalAlign=top;spacingLeft=4;spacingRight=4;overflow=hidden;rotatable=0;points=[[0,0.5],[1,0.5]];portConstraint=eastwest;rounded=0;shadow=0;html=0;" vertex="1" parent="oAdYO1nvRudMaTHA6pIa-191">
          <mxGeometry y="52" width="160" height="26" as="geometry" />
        </mxCell>
        <mxCell id="oAdYO1nvRudMaTHA6pIa-194" value="lead_id" style="text;align=left;verticalAlign=top;spacingLeft=4;spacingRight=4;overflow=hidden;rotatable=0;points=[[0,0.5],[1,0.5]];portConstraint=eastwest;rounded=0;shadow=0;html=0;" vertex="1" parent="oAdYO1nvRudMaTHA6pIa-191">
          <mxGeometry y="78" width="160" height="26" as="geometry" />
        </mxCell>
        <mxCell id="oAdYO1nvRudMaTHA6pIa-195" value="region" style="text;align=left;verticalAlign=top;spacingLeft=4;spacingRight=4;overflow=hidden;rotatable=0;points=[[0,0.5],[1,0.5]];portConstraint=eastwest;rounded=0;shadow=0;html=0;" vertex="1" parent="oAdYO1nvRudMaTHA6pIa-191">
          <mxGeometry y="104" width="160" height="26" as="geometry" />
        </mxCell>
        <mxCell id="oAdYO1nvRudMaTHA6pIa-197" value="" style="line;html=1;strokeWidth=1;align=left;verticalAlign=middle;spacingTop=-1;spacingLeft=3;spacingRight=3;rotatable=0;labelPosition=right;points=[];portConstraint=eastwest;" vertex="1" parent="oAdYO1nvRudMaTHA6pIa-191">
          <mxGeometry y="130" width="160" height="8" as="geometry" />
        </mxCell>
        <mxCell id="oAdYO1nvRudMaTHA6pIa-218" value="Deals" style="swimlane;fontStyle=3;align=center;verticalAlign=top;childLayout=stackLayout;horizontal=1;startSize=26;horizontalStack=0;resizeParent=1;resizeLast=0;collapsible=1;marginBottom=0;rounded=0;shadow=0;strokeWidth=2;fontColor=#333333;fillColor=#f5f5f5;strokeColor=#666666;" vertex="1" parent="WIyWlLk6GJQsqaUBKTNV-1">
          <mxGeometry x="1" y="1833" width="160" height="210" as="geometry">
            <mxRectangle x="130" y="380" width="160" height="26" as="alternateBounds" />
          </mxGeometry>
        </mxCell>
        <mxCell id="oAdYO1nvRudMaTHA6pIa-219" value="id" style="text;align=left;verticalAlign=top;spacingLeft=4;spacingRight=4;overflow=hidden;rotatable=0;points=[[0,0.5],[1,0.5]];portConstraint=eastwest;" vertex="1" parent="oAdYO1nvRudMaTHA6pIa-218">
          <mxGeometry y="26" width="160" height="26" as="geometry" />
        </mxCell>
        <mxCell id="oAdYO1nvRudMaTHA6pIa-225" value="real_estate_id" style="text;align=left;verticalAlign=top;spacingLeft=4;spacingRight=4;overflow=hidden;rotatable=0;points=[[0,0.5],[1,0.5]];portConstraint=eastwest;fillColor=#f9f7ed;strokeColor=#36393d;" vertex="1" parent="oAdYO1nvRudMaTHA6pIa-218">
          <mxGeometry y="52" width="160" height="26" as="geometry" />
        </mxCell>
        <mxCell id="oAdYO1nvRudMaTHA6pIa-220" value="employee_id" style="text;align=left;verticalAlign=top;spacingLeft=4;spacingRight=4;overflow=hidden;rotatable=0;points=[[0,0.5],[1,0.5]];portConstraint=eastwest;rounded=0;shadow=0;html=0;fillColor=#f9f7ed;strokeColor=#36393d;" vertex="1" parent="oAdYO1nvRudMaTHA6pIa-218">
          <mxGeometry y="78" width="160" height="22" as="geometry" />
        </mxCell>
        <mxCell id="oAdYO1nvRudMaTHA6pIa-221" value="client_id" style="text;align=left;verticalAlign=top;spacingLeft=4;spacingRight=4;overflow=hidden;rotatable=0;points=[[0,0.5],[1,0.5]];portConstraint=eastwest;rounded=0;shadow=0;html=0;fillColor=#f9f7ed;strokeColor=#36393d;" vertex="1" parent="oAdYO1nvRudMaTHA6pIa-218">
          <mxGeometry y="100" width="160" height="26" as="geometry" />
        </mxCell>
        <mxCell id="oAdYO1nvRudMaTHA6pIa-222" value="amount" style="text;align=left;verticalAlign=top;spacingLeft=4;spacingRight=4;overflow=hidden;rotatable=0;points=[[0,0.5],[1,0.5]];portConstraint=eastwest;rounded=0;shadow=0;html=0;" vertex="1" parent="oAdYO1nvRudMaTHA6pIa-218">
          <mxGeometry y="126" width="160" height="26" as="geometry" />
        </mxCell>
        <mxCell id="oAdYO1nvRudMaTHA6pIa-223" value="comission" style="text;align=left;verticalAlign=top;spacingLeft=4;spacingRight=4;overflow=hidden;rotatable=0;points=[[0,0.5],[1,0.5]];portConstraint=eastwest;rounded=0;shadow=0;html=0;" vertex="1" parent="oAdYO1nvRudMaTHA6pIa-218">
          <mxGeometry y="152" width="160" height="26" as="geometry" />
        </mxCell>
        <mxCell id="oAdYO1nvRudMaTHA6pIa-224" value="" style="line;html=1;strokeWidth=1;align=left;verticalAlign=middle;spacingTop=-1;spacingLeft=3;spacingRight=3;rotatable=0;labelPosition=right;points=[];portConstraint=eastwest;" vertex="1" parent="oAdYO1nvRudMaTHA6pIa-218">
          <mxGeometry y="178" width="160" height="8" as="geometry" />
        </mxCell>
        <mxCell id="oAdYO1nvRudMaTHA6pIa-229" value="Clients" style="swimlane;fontStyle=3;align=center;verticalAlign=top;childLayout=stackLayout;horizontal=1;startSize=26;horizontalStack=0;resizeParent=1;resizeLast=0;collapsible=1;marginBottom=0;rounded=0;shadow=0;strokeWidth=1;fillColor=#f5f5f5;strokeColor=#666666;fontColor=#333333;" vertex="1" parent="WIyWlLk6GJQsqaUBKTNV-1">
          <mxGeometry x="240" y="2012" width="160" height="188" as="geometry">
            <mxRectangle x="550" y="140" width="160" height="26" as="alternateBounds" />
          </mxGeometry>
        </mxCell>
        <mxCell id="oAdYO1nvRudMaTHA6pIa-230" value="id" style="text;align=left;verticalAlign=top;spacingLeft=4;spacingRight=4;overflow=hidden;rotatable=0;points=[[0,0.5],[1,0.5]];portConstraint=eastwest;rounded=0;shadow=0;html=0;fillColor=#f9f7ed;strokeColor=#36393d;" vertex="1" parent="oAdYO1nvRudMaTHA6pIa-229">
          <mxGeometry y="26" width="160" height="26" as="geometry" />
        </mxCell>
        <mxCell id="oAdYO1nvRudMaTHA6pIa-231" value="name" style="text;align=left;verticalAlign=top;spacingLeft=4;spacingRight=4;overflow=hidden;rotatable=0;points=[[0,0.5],[1,0.5]];portConstraint=eastwest;rounded=0;shadow=0;html=0;" vertex="1" parent="oAdYO1nvRudMaTHA6pIa-229">
          <mxGeometry y="52" width="160" height="26" as="geometry" />
        </mxCell>
        <mxCell id="oAdYO1nvRudMaTHA6pIa-238" value="surname" style="text;align=left;verticalAlign=top;spacingLeft=4;spacingRight=4;overflow=hidden;rotatable=0;points=[[0,0.5],[1,0.5]];portConstraint=eastwest;rounded=0;shadow=0;html=0;" vertex="1" parent="oAdYO1nvRudMaTHA6pIa-229">
          <mxGeometry y="78" width="160" height="26" as="geometry" />
        </mxCell>
        <mxCell id="oAdYO1nvRudMaTHA6pIa-232" value="tel&#xa;" style="text;align=left;verticalAlign=top;spacingLeft=4;spacingRight=4;overflow=hidden;rotatable=0;points=[[0,0.5],[1,0.5]];portConstraint=eastwest;" vertex="1" parent="oAdYO1nvRudMaTHA6pIa-229">
          <mxGeometry y="104" width="160" height="26" as="geometry" />
        </mxCell>
        <mxCell id="oAdYO1nvRudMaTHA6pIa-233" value="email" style="text;align=left;verticalAlign=top;spacingLeft=4;spacingRight=4;overflow=hidden;rotatable=0;points=[[0,0.5],[1,0.5]];portConstraint=eastwest;rounded=0;shadow=0;html=0;" vertex="1" parent="oAdYO1nvRudMaTHA6pIa-229">
          <mxGeometry y="130" width="160" height="26" as="geometry" />
        </mxCell>
        <mxCell id="oAdYO1nvRudMaTHA6pIa-237" value="" style="line;html=1;strokeWidth=1;align=left;verticalAlign=middle;spacingTop=-1;spacingLeft=3;spacingRight=3;rotatable=0;labelPosition=right;points=[];portConstraint=eastwest;" vertex="1" parent="oAdYO1nvRudMaTHA6pIa-229">
          <mxGeometry y="156" width="160" height="8" as="geometry" />
        </mxCell>
        <mxCell id="oAdYO1nvRudMaTHA6pIa-254" style="edgeStyle=orthogonalEdgeStyle;rounded=0;orthogonalLoop=1;jettySize=auto;html=1;exitX=1;exitY=0.5;exitDx=0;exitDy=0;entryX=0;entryY=0.5;entryDx=0;entryDy=0;endArrow=classic;endFill=1;" edge="1" parent="WIyWlLk6GJQsqaUBKTNV-1" source="oAdYO1nvRudMaTHA6pIa-193" target="oAdYO1nvRudMaTHA6pIa-190">
          <mxGeometry relative="1" as="geometry" />
        </mxCell>
        <mxCell id="oAdYO1nvRudMaTHA6pIa-255" style="edgeStyle=orthogonalEdgeStyle;rounded=0;orthogonalLoop=1;jettySize=auto;html=1;exitX=1;exitY=0.5;exitDx=0;exitDy=0;entryX=0;entryY=0.5;entryDx=0;entryDy=0;endArrow=classic;endFill=1;" edge="1" parent="WIyWlLk6GJQsqaUBKTNV-1" source="zkfFHV4jXpPFQw0GAbJ--7" target="oAdYO1nvRudMaTHA6pIa-187">
          <mxGeometry relative="1" as="geometry" />
        </mxCell>
        <mxCell id="oAdYO1nvRudMaTHA6pIa-256" style="edgeStyle=orthogonalEdgeStyle;rounded=0;orthogonalLoop=1;jettySize=auto;html=1;exitX=1;exitY=0.5;exitDx=0;exitDy=0;entryX=0;entryY=0.5;entryDx=0;entryDy=0;endArrow=classic;endFill=1;" edge="1" parent="WIyWlLk6GJQsqaUBKTNV-1" source="oAdYO1nvRudMaTHA6pIa-186" target="oAdYO1nvRudMaTHA6pIa-220">
          <mxGeometry relative="1" as="geometry">
            <Array as="points">
              <mxPoint x="-60" y="1712" />
              <mxPoint x="-60" y="1922" />
            </Array>
          </mxGeometry>
        </mxCell>
        <mxCell id="oAdYO1nvRudMaTHA6pIa-258" style="edgeStyle=orthogonalEdgeStyle;rounded=0;orthogonalLoop=1;jettySize=auto;html=1;exitX=0;exitY=0.5;exitDx=0;exitDy=0;entryX=1;entryY=0.5;entryDx=0;entryDy=0;endArrow=classic;endFill=1;" edge="1" parent="WIyWlLk6GJQsqaUBKTNV-1" source="oAdYO1nvRudMaTHA6pIa-205" target="oAdYO1nvRudMaTHA6pIa-225">
          <mxGeometry relative="1" as="geometry" />
        </mxCell>
        <mxCell id="oAdYO1nvRudMaTHA6pIa-259" style="edgeStyle=orthogonalEdgeStyle;rounded=0;orthogonalLoop=1;jettySize=auto;html=1;exitX=0;exitY=0.5;exitDx=0;exitDy=0;entryX=1;entryY=0.5;entryDx=0;entryDy=0;endArrow=classic;endFill=1;" edge="1" parent="WIyWlLk6GJQsqaUBKTNV-1" source="oAdYO1nvRudMaTHA6pIa-230" target="oAdYO1nvRudMaTHA6pIa-221">
          <mxGeometry relative="1" as="geometry">
            <Array as="points">
              <mxPoint x="190" y="2051" />
              <mxPoint x="190" y="1946" />
            </Array>
          </mxGeometry>
        </mxCell>
        <mxCell id="oAdYO1nvRudMaTHA6pIa-260" style="edgeStyle=orthogonalEdgeStyle;rounded=0;orthogonalLoop=1;jettySize=auto;html=1;exitX=0;exitY=0.5;exitDx=0;exitDy=0;entryX=1;entryY=0.5;entryDx=0;entryDy=0;endArrow=classic;endFill=1;" edge="1" parent="WIyWlLk6GJQsqaUBKTNV-1" source="oAdYO1nvRudMaTHA6pIa-219" target="oAdYO1nvRudMaTHA6pIa-215">
          <mxGeometry relative="1" as="geometry" />
        </mxCell>
      </root>
    </mxGraphModel>
  </diagram>
</mxfile>
